<?xml version="1.0" encoding="iso-8859-1"?>
<!-- Generator: Adobe Illustrator 18.0.0, SVG Export Plug-In . SVG Version: 6.00 Build 0)  -->
<!DOCTYPE svg PUBLIC "-//W3C//DTD SVG 1.1//EN" "http://www.w3.org/Graphics/SVG/1.1/DTD/svg11.dtd">
<svg xmlns="http://www.w3.org/2000/svg" xmlns:xlink="http://www.w3.org/1999/xlink" version="1.1" id="Capa_1" x="0px" y="0px" viewBox="0 0 400.48 400.48" style="enable-background:new 0 0 400.48 400.48;" xml:space="preserve" width="512px" height="512px">
<g>
	<path d="M361.588,52.68c-16.861-16.861-39.279-26.147-63.124-26.147c-23.846,0-46.264,9.286-63.124,26.147   c-16.867,16.866-26.313,40.024-26.124,63.863L23.365,335.236c-2.024,2.382-1.88,5.918,0.33,8.128l18.841,18.841l-28.033,28.032   c-2.343,2.344-2.343,6.143,0,8.485c1.172,1.172,2.707,1.758,4.243,1.758c1.535,0,3.071-0.586,4.243-1.757l28.033-28.033   l19.882,19.882c1.167,1.167,2.703,1.758,4.244,1.758c1.378,0,2.76-0.473,3.884-1.428l218.694-185.851   c0.231,0.002,0.465,0.003,0.695,0.003c23.592,0,46.466-9.425,63.167-26.127c16.861-16.861,26.147-39.279,26.147-63.124   C387.735,91.958,378.449,69.54,361.588,52.68z M215.621,127.537l71.11,71.11l-40.819,34.689l-64.979-64.98L215.621,127.537z    M75.476,378.176l-39.384-39.384L173.136,177.53l63.602,63.602L75.476,378.176z M353.102,170.442   c-14.756,14.757-34.228,22.697-55.019,22.587l-76.846-76.846c-0.121-20.799,7.832-40.263,22.588-55.02   c14.595-14.594,34-22.632,54.64-22.632s40.044,8.038,54.638,22.632c0,0,0,0,0.001,0c14.594,14.595,22.632,34,22.632,54.64   S367.697,155.848,353.102,170.442z" fill="#FFFFFF"/>
	<path d="M53.244,101.996c15.714,0,28.499-12.784,28.499-28.499V12h65.996v38.282c-4.66-3.322-10.353-5.284-16.499-5.284   c-15.714,0-28.499,12.784-28.499,28.499s12.785,28.499,28.499,28.499s28.499-12.784,28.499-28.499V6c0-3.313-2.687-6-6-6H75.743   c-3.313,0-6,2.687-6,6v44.282c-4.66-3.322-10.353-5.284-16.499-5.284c-15.714,0-28.499,12.784-28.499,28.499   S37.53,101.996,53.244,101.996z M131.24,89.996c-9.098,0-16.499-7.401-16.499-16.499s7.401-16.499,16.499-16.499   s16.499,7.401,16.499,16.499S140.338,89.996,131.24,89.996z M53.244,56.998c9.098,0,16.499,7.401,16.499,16.499   s-7.401,16.499-16.499,16.499s-16.499-7.401-16.499-16.499S44.146,56.998,53.244,56.998z" fill="#FFFFFF"/>
</g>
<g>
</g>
<g>
</g>
<g>
</g>
<g>
</g>
<g>
</g>
<g>
</g>
<g>
</g>
<g>
</g>
<g>
</g>
<g>
</g>
<g>
</g>
<g>
</g>
<g>
</g>
<g>
</g>
<g>
</g>
</svg>
